<?xml version="1.0" encoding="UTF-8"?>
<svg id="Layer_1" data-name="Layer 1" xmlns="http://www.w3.org/2000/svg" viewBox="0 0 1344 768">
  <defs>
    <style>
      .cls-1 {
        fill: #262e40;
      }

      .cls-2 {
        fill: none;
        stroke: #f7bd00;
        stroke-miterlimit: 10;
        stroke-width: 5px;
      }

      .cls-3 {
        fill: #f7bd00;
      }
    </style>
  </defs>
  <g>
    <path class="cls-3" d="M140.75,376.79h80.06v13.1h-80.06v-13.1Z"/>
    <path class="cls-3" d="M261.73,340.77h12.55l1.46,20.92h.36c9.28-14.37,23.11-23.11,39.48-23.11,6.55,0,12.01.91,17.47,3.64l-3.46,12.92c-6.19-2-9.46-2.91-16.38-2.91-13.28,0-25.84,6.73-36.39,25.29v51.67h-15.1v-88.43Z"/>
    <path class="cls-3" d="M345.97,340.77h14.92l10.55,51.31c1.64,8.37,2.91,16.01,4,24.38h.73c1.09-8.37,3.09-16.19,5.09-24.38l10.92-45.85h14.92l10.55,45.85c2,8.37,4.37,16.01,5.46,24.38h.73c1.46-8.37,2.37-16.01,4-24.38l10.55-51.31h13.83l-18.92,88.43h-19.29l-10.19-42.21c-1.46-6.19-2.91-14.92-4.37-26.2h-.73c-1.46,11.28-2.91,20.01-4.37,26.2l-9.83,42.21h-19.29l-19.29-88.43Z"/>
    <path class="cls-3" d="M468.23,376.79h80.06v13.1h-80.06v-13.1Z"/>
    <path class="cls-3" d="M589.22,340.77h12.55l1.46,20.92h.36c9.28-14.37,23.11-23.11,39.48-23.11,6.55,0,12.01.91,17.47,3.64l-3.46,12.92c-6.19-2-9.46-2.91-16.38-2.91-13.28,0-25.84,6.73-36.39,25.29v51.67h-15.1v-88.43Z"/>
    <path class="cls-3" d="M673.46,340.77h14.92l10.55,51.31c1.64,8.37,2.91,16.01,4,24.38h.73c1.09-8.37,3.09-16.19,5.09-24.38l10.92-45.85h14.92l10.55,45.85c2,8.37,4.37,16.01,5.46,24.38h.73c1.46-8.37,2.37-16.01,4-24.38l10.55-51.31h13.83l-18.92,88.43h-19.29l-10.19-42.21c-1.46-6.19-2.91-14.92-4.37-26.2h-.73c-1.46,11.28-2.91,20.01-4.37,26.2l-9.83,42.21h-19.29l-19.29-88.43Z"/>
    <path class="cls-3" d="M795.72,376.79h80.06v13.1h-80.06v-13.1Z"/>
    <path class="cls-3" d="M916.71,340.77h12.55l1.46,20.92h.36c9.28-14.37,23.11-23.11,39.48-23.11,6.55,0,12.01.91,17.47,3.64l-3.46,12.92c-6.19-2-9.46-2.91-16.38-2.91-13.28,0-25.84,6.73-36.39,25.29v51.67h-15.1v-88.43Z"/>
    <path class="cls-3" d="M1014.04,376.79h80.06v13.1h-80.06v-13.1Z"/>
    <path class="cls-3" d="M1123.2,376.79h80.06v13.1h-80.06v-13.1Z"/>
  </g>
  <rect class="cls-1" x="0" width="1344" height="768"/>
  <g>
    <rect class="cls-2" x="120.77" y="148" width="120" height="350"/>
    <rect class="cls-2" x="251.01" y="148" width="308" height="350"/>
    <rect class="cls-2" x="578.5" y="148" width="308" height="350"/>
    <rect class="cls-2" x="905.98" y="148" width="308" height="350"/>
    <path class="cls-3" d="M140.75,315.9h80.06v13.1h-80.06v-13.1Z"/>
    <g>
      <path class="cls-3" d="M261.73,279.88h12.55l1.46,20.92h.36c9.28-14.37,23.11-23.11,39.48-23.11,6.55,0,12.01.91,17.47,3.64l-3.46,12.92c-6.19-2-9.46-2.91-16.38-2.91-13.28,0-25.84,6.73-36.39,25.29v51.67h-15.1v-88.43Z"/>
      <path class="cls-3" d="M345.97,279.88h14.92l10.55,51.31c1.64,8.37,2.91,16.01,4,24.38h.73c1.09-8.37,3.09-16.19,5.09-24.38l10.92-45.85h14.92l10.55,45.85c2,8.37,4.37,16.01,5.46,24.38h.73c1.46-8.37,2.37-16.01,4-24.38l10.55-51.31h13.83l-18.92,88.43h-19.29l-10.19-42.21c-1.46-6.19-2.91-14.92-4.37-26.2h-.73c-1.46,11.28-2.91,20.01-4.37,26.2l-9.83,42.21h-19.29l-19.29-88.43Z"/>
      <path class="cls-3" d="M468.23,315.9h80.06v13.1h-80.06v-13.1Z"/>
    </g>
    <g>
      <path class="cls-3" d="M589.22,279.88h12.55l1.46,20.92h.36c9.28-14.37,23.11-23.11,39.48-23.11,6.55,0,12.01.91,17.47,3.64l-3.46,12.92c-6.19-2-9.46-2.91-16.38-2.91-13.28,0-25.84,6.73-36.39,25.29v51.67h-15.1v-88.43Z"/>
      <path class="cls-3" d="M673.46,279.88h14.92l10.55,51.31c1.64,8.37,2.91,16.01,4,24.38h.73c1.09-8.37,3.09-16.19,5.09-24.38l10.92-45.85h14.92l10.55,45.85c2,8.37,4.37,16.01,5.46,24.38h.73c1.46-8.37,2.37-16.01,4-24.38l10.55-51.31h13.83l-18.92,88.43h-19.29l-10.19-42.21c-1.46-6.19-2.91-14.92-4.37-26.2h-.73c-1.46,11.28-2.91,20.01-4.37,26.2l-9.83,42.21h-19.29l-19.29-88.43Z"/>
      <path class="cls-3" d="M795.72,315.9h80.06v13.1h-80.06v-13.1Z"/>
    </g>
    <g>
      <path class="cls-3" d="M916.71,279.88h12.55l1.46,20.92h.36c9.28-14.37,23.11-23.11,39.48-23.11,6.55,0,12.01.91,17.47,3.64l-3.46,12.92c-6.19-2-9.46-2.91-16.38-2.91-13.28,0-25.84,6.73-36.39,25.29v51.67h-15.1v-88.43Z"/>
      <path class="cls-3" d="M1014.04,315.9h80.06v13.1h-80.06v-13.1Z"/>
      <path class="cls-3" d="M1123.2,315.9h80.06v13.1h-80.06v-13.1Z"/>
    </g>
    <g>
      <path class="cls-3" d="M107.09,530.45h-8.68v-2.84h20.72v2.84h-8.68v23.4h-3.36v-23.4Z"/>
      <path class="cls-3" d="M133.37,537.08h-9v-2.68h12.32v19.44h-3.32v-16.76ZM132.05,527.77c0-1.52,1.12-2.56,2.64-2.56s2.64,1.04,2.64,2.56-1.12,2.56-2.64,2.56-2.64-1-2.64-2.56Z"/>
      <path class="cls-3" d="M148.49,534.41h2.72l.28,2.48h.12c1.8-1.72,4.36-2.96,6.72-2.96,5.24,0,8.04,3.88,8.04,9.92,0,6.6-4.16,10.48-8.84,10.48-1.8,0-4.04-.92-5.8-2.52h-.08l.16,3.68v6.56h-3.32v-27.64ZM162.97,543.84c0-4.28-1.6-7.12-5.48-7.12-1.72,0-3.72.88-5.68,2.88v9.68c1.8,1.64,3.84,2.24,5.16,2.24,3.44,0,6-2.88,6-7.68Z"/>
      <path class="cls-3" d="M171.17,544.16c0-6.52,4.48-10.24,9.6-10.24s9.6,3.72,9.6,10.24-4.48,10.16-9.6,10.16-9.6-3.72-9.6-10.16ZM186.97,544.16c0-4.48-2.48-7.48-6.2-7.48s-6.2,3-6.2,7.48,2.48,7.4,6.2,7.4,6.2-2.96,6.2-7.4Z"/>
      <path class="cls-3" d="M219.17,544.16c0-6.32,4.2-10.24,8.8-10.24,2.32,0,4.12.92,5.84,2.48h.08l-.16-3.56v-7.48h3.32v28.47h-2.72l-.28-2.56h-.12c-1.6,1.64-3.92,3.04-6.36,3.04-5.04,0-8.4-3.68-8.4-10.16ZM233.73,548.64v-9.68c-1.76-1.64-3.4-2.24-5.08-2.24-3.36,0-6.08,2.96-6.08,7.4s2.16,7.4,5.72,7.4c1.92,0,3.72-.96,5.44-2.88Z"/>
      <path class="cls-3" d="M243.49,544.08c0-6.32,4.72-10.16,9.92-10.16,5.6,0,8.88,3.64,8.88,9.12,0,.76-.08,1.48-.16,2h-16.44v-2.56h14.48l-.84.92c0-4.6-2.28-6.88-5.84-6.88s-6.72,2.72-6.72,7.56,3.28,7.6,7.6,7.6c2.32,0,4.16-.72,5.92-1.84l1.2,2.16c-1.92,1.28-4.4,2.32-7.52,2.32-5.84,0-10.48-3.76-10.48-10.24Z"/>
      <path class="cls-3" d="M99.98,596.8c0-4.36,4.08-6.48,14.12-7.28-.12-2.64-1.4-4.88-5.16-4.88-2.52,0-5,1.2-6.8,2.32l-1.32-2.24c2-1.28,5.28-2.8,8.68-2.8,5.32,0,7.92,3.16,7.92,8v11.92h-2.76l-.28-2.64h-.12c-2.12,1.68-4.92,3.12-7.64,3.12-3.64,0-6.64-2.04-6.64-5.52ZM114.09,596.76v-5.04c-8.32.64-10.84,2.28-10.84,4.84,0,2.2,2,3.08,4.24,3.08s4.36-1.04,6.6-2.88Z"/>
      <path class="cls-3" d="M126.57,582.41h2.76l.32,4.6h.08c2.04-3.16,5.08-5.08,8.68-5.08,1.44,0,2.64.2,3.84.8l-.76,2.84c-1.36-.44-2.08-.64-3.6-.64-2.92,0-5.68,1.48-8,5.56v11.36h-3.32v-19.44Z"/>
      <path class="cls-3" d="M147.97,592.16c0-6.52,4.96-10.24,10.84-10.24,3.16,0,5.48,1.28,7.08,2.84l-1.64,2.12c-1.6-1.36-3.28-2.2-5.32-2.2-4.48,0-7.56,3-7.56,7.48s3.04,7.4,7.48,7.4c2.4,0,4.4-1.08,6-2.44l1.48,2.16c-2.16,1.92-4.84,3.04-7.72,3.04-6.08,0-10.64-3.72-10.64-10.16Z"/>
      <path class="cls-3" d="M172.49,573.37h3.32v7.76l-.2,4.6h.12c1.96-2.16,4.24-3.8,7.24-3.8,4.6,0,6.72,2.72,6.72,7.84v12.08h-3.32v-11.64c0-3.68-1.28-5.4-4.44-5.4-2.32,0-3.88,1.16-6.12,3.48v13.56h-3.32v-28.47Z"/>
      <path class="cls-3" d="M205.37,585.08h-9v-2.68h12.32v19.44h-3.32v-16.76ZM204.05,575.77c0-1.52,1.12-2.56,2.64-2.56s2.64,1.04,2.64,2.56-1.12,2.56-2.64,2.56-2.64-1-2.64-2.56Z"/>
      <path class="cls-3" d="M218.77,582.41h3.4l4.48,11c.76,1.96,1.48,3.88,2.16,5.76h.16c.68-1.88,1.32-3.8,2.12-5.76l4.48-11h3.2l-8.08,19.44h-3.72l-8.2-19.44Z"/>
      <path class="cls-3" d="M243.17,592.16c0-6.52,4.48-10.24,9.6-10.24s9.6,3.72,9.6,10.24-4.48,10.16-9.6,10.16-9.6-3.72-9.6-10.16ZM258.97,592.16c0-4.48-2.48-7.48-6.2-7.48s-6.2,3-6.2,7.48,2.48,7.4,6.2,7.4,6.2-2.96,6.2-7.4Z"/>
    </g>
    <g>
      <path class="cls-3" d="M313.09,527.61h7.92c5.8,0,9.72,1.96,9.72,7.72s-3.96,8.12-9.72,8.12h-4.56v10.4h-3.36v-26.24ZM320.61,540.72c4.56,0,6.76-1.68,6.76-5.4s-2.24-5-6.76-5h-4.16v10.4h4.16Z"/>
      <path class="cls-3" d="M335.73,544.08c0-6.32,4.72-10.16,9.92-10.16,5.6,0,8.88,3.64,8.88,9.12,0,.76-.08,1.48-.16,2h-16.44v-2.56h14.48l-.84.92c0-4.6-2.28-6.88-5.84-6.88s-6.72,2.72-6.72,7.56,3.28,7.6,7.6,7.6c2.32,0,4.16-.72,5.92-1.84l1.2,2.16c-1.92,1.28-4.4,2.32-7.52,2.32-5.84,0-10.48-3.76-10.48-10.24Z"/>
      <path class="cls-3" d="M362.81,534.41h2.76l.32,4.6h.08c2.04-3.16,5.08-5.08,8.68-5.08,1.44,0,2.64.2,3.84.8l-.76,2.84c-1.36-.44-2.08-.64-3.6-.64-2.92,0-5.68,1.48-8,5.56v11.36h-3.32v-19.44Z"/>
      <path class="cls-3" d="M383.33,534.41h2.64l.28,2.56h.08c1-1.8,2.2-3.04,4.44-3.04,1.92,0,3.12,1.12,3.68,3.36,1.12-2.08,2.32-3.36,4.56-3.36,2.72,0,4.32,2.12,4.32,6v13.92h-3.28v-13.68c0-2.24-.64-3.4-2.08-3.4-1.36,0-2.08,1-3.12,3v14.08h-3.04v-13.68c0-2.24-.56-3.4-2-3.4-1.36,0-2.24,1-3.2,3v14.08h-3.28v-19.44Z"/>
      <path class="cls-3" d="M417.61,537.08h-9v-2.68h12.32v19.44h-3.32v-16.76ZM416.29,527.77c0-1.52,1.12-2.56,2.64-2.56s2.64,1.04,2.64,2.56-1.12,2.56-2.64,2.56-2.64-1-2.64-2.56Z"/>
      <path class="cls-3" d="M431.85,551.28l1.52-2.2c2.24,1.6,4.88,2.64,8.44,2.64,3.28,0,4.88-1.36,4.88-3,0-1.48-.76-2.52-6.04-3.6-5.08-1.04-7.6-2.76-7.6-5.68,0-3.12,2.76-5.52,8.08-5.52,2.96,0,5.92,1.16,7.84,2.48l-1.6,2.12c-1.8-1.24-4.04-2.04-6.52-2.04-3.28,0-4.48,1.32-4.48,2.8,0,1.68,1.68,2.4,5.68,3.24,6.44,1.4,8,3,8,6,0,3.16-3.08,5.8-8.64,5.8-3.8,0-7.2-1.4-9.56-3.04Z"/>
      <path class="cls-3" d="M455.41,544.16c0-6.52,4.48-10.24,9.6-10.24s9.6,3.72,9.6,10.24-4.48,10.16-9.6,10.16-9.6-3.72-9.6-10.16ZM471.21,544.16c0-4.48-2.48-7.48-6.2-7.48s-6.2,3-6.2,7.48,2.48,7.4,6.2,7.4,6.2-2.96,6.2-7.4Z"/>
      <path class="cls-3" d="M479.85,551.28l1.52-2.2c2.24,1.6,4.88,2.64,8.44,2.64,3.28,0,4.88-1.36,4.88-3,0-1.48-.76-2.52-6.04-3.6-5.08-1.04-7.6-2.76-7.6-5.68,0-3.12,2.76-5.52,8.08-5.52,2.96,0,5.92,1.16,7.84,2.48l-1.6,2.12c-1.8-1.24-4.04-2.04-6.52-2.04-3.28,0-4.48,1.32-4.48,2.8,0,1.68,1.68,2.4,5.68,3.24,6.44,1.4,8,3,8,6,0,3.16-3.08,5.8-8.64,5.8-3.8,0-7.2-1.4-9.56-3.04Z"/>
      <path class="cls-3" d="M346.93,588.6c0-8.48,4.16-13.48,10.08-13.48s10.08,5,10.08,13.48-4.16,13.72-10.08,13.72-10.08-5.12-10.08-13.72ZM363.61,588.6c0-6.6-2.64-10.52-6.6-10.52s-6.6,3.92-6.6,10.52,2.64,10.76,6.6,10.76,6.6-4.04,6.6-10.76Z"/>
      <path class="cls-3" d="M369.33,582.41h3.28l2.32,11.28c.36,1.84.64,3.52.88,5.36h.16c.24-1.84.68-3.56,1.12-5.36l2.4-10.08h3.28l2.32,10.08c.44,1.84.96,3.52,1.2,5.36h.16c.32-1.84.52-3.52.88-5.36l2.32-11.28h3.04l-4.16,19.44h-4.24l-2.24-9.28c-.32-1.36-.64-3.28-.96-5.76h-.16c-.32,2.48-.64,4.4-.96,5.76l-2.16,9.28h-4.24l-4.24-19.44Z"/>
      <path class="cls-3" d="M396.73,582.41h2.72l.28,3.28h.16c2.04-2.12,4.28-3.76,7.32-3.76,4.6,0,6.72,2.72,6.72,7.84v12.08h-3.32v-11.64c0-3.68-1.28-5.4-4.44-5.4-2.32,0-3.88,1.16-6.12,3.48v13.56h-3.32v-19.44Z"/>
      <path class="cls-3" d="M419.73,592.08c0-6.32,4.72-10.16,9.92-10.16,5.6,0,8.88,3.64,8.88,9.12,0,.76-.08,1.48-.16,2h-16.44v-2.56h14.48l-.84.92c0-4.6-2.28-6.88-5.84-6.88s-6.72,2.72-6.72,7.56,3.28,7.6,7.6,7.6c2.32,0,4.16-.72,5.92-1.84l1.2,2.16c-1.92,1.28-4.4,2.32-7.52,2.32-5.84,0-10.48-3.76-10.48-10.24Z"/>
      <path class="cls-3" d="M446.81,582.41h2.76l.32,4.6h.08c2.04-3.16,5.08-5.08,8.68-5.08,1.44,0,2.64.2,3.84.8l-.76,2.84c-1.36-.44-2.08-.64-3.6-.64-2.92,0-5.68,1.48-8,5.56v11.36h-3.32v-19.44Z"/>
    </g>
    <g>
      <path class="cls-3" d="M640.58,527.61h7.92c5.8,0,9.72,1.96,9.72,7.72s-3.96,8.12-9.72,8.12h-4.56v10.4h-3.36v-26.24ZM648.1,540.72c4.56,0,6.76-1.68,6.76-5.4s-2.24-5-6.76-5h-4.16v10.4h4.16Z"/>
      <path class="cls-3" d="M663.22,544.08c0-6.32,4.72-10.16,9.92-10.16,5.6,0,8.88,3.64,8.88,9.12,0,.76-.08,1.48-.16,2h-16.44v-2.56h14.48l-.84.92c0-4.6-2.28-6.88-5.84-6.88s-6.72,2.72-6.72,7.56,3.28,7.6,7.6,7.6c2.32,0,4.16-.72,5.92-1.84l1.2,2.16c-1.92,1.28-4.4,2.32-7.52,2.32-5.84,0-10.48-3.76-10.48-10.24Z"/>
      <path class="cls-3" d="M690.3,534.41h2.76l.32,4.6h.08c2.04-3.16,5.08-5.08,8.68-5.08,1.44,0,2.64.2,3.84.8l-.76,2.84c-1.36-.44-2.08-.64-3.6-.64-2.92,0-5.68,1.48-8,5.56v11.36h-3.32v-19.44Z"/>
      <path class="cls-3" d="M710.82,534.41h2.64l.28,2.56h.08c1-1.8,2.2-3.04,4.44-3.04,1.92,0,3.12,1.12,3.68,3.36,1.12-2.08,2.32-3.36,4.56-3.36,2.72,0,4.32,2.12,4.32,6v13.92h-3.28v-13.68c0-2.24-.64-3.4-2.08-3.4-1.36,0-2.08,1-3.12,3v14.08h-3.04v-13.68c0-2.24-.56-3.4-2-3.4-1.36,0-2.24,1-3.2,3v14.08h-3.28v-19.44Z"/>
      <path class="cls-3" d="M745.09,537.08h-9v-2.68h12.32v19.44h-3.32v-16.76ZM743.78,527.77c0-1.52,1.12-2.56,2.64-2.56s2.64,1.04,2.64,2.56-1.12,2.56-2.64,2.56-2.64-1-2.64-2.56Z"/>
      <path class="cls-3" d="M759.34,551.28l1.52-2.2c2.24,1.6,4.88,2.64,8.44,2.64,3.28,0,4.88-1.36,4.88-3,0-1.48-.76-2.52-6.04-3.6-5.08-1.04-7.6-2.76-7.6-5.68,0-3.12,2.76-5.52,8.08-5.52,2.96,0,5.92,1.16,7.84,2.48l-1.6,2.12c-1.8-1.24-4.04-2.04-6.52-2.04-3.28,0-4.48,1.32-4.48,2.8,0,1.68,1.68,2.4,5.68,3.24,6.44,1.4,8,3,8,6,0,3.16-3.08,5.8-8.64,5.8-3.8,0-7.2-1.4-9.56-3.04Z"/>
      <path class="cls-3" d="M782.9,544.16c0-6.52,4.48-10.24,9.6-10.24s9.6,3.72,9.6,10.24-4.48,10.16-9.6,10.16-9.6-3.72-9.6-10.16ZM798.69,544.16c0-4.48-2.48-7.48-6.2-7.48s-6.2,3-6.2,7.48,2.48,7.4,6.2,7.4,6.2-2.96,6.2-7.4Z"/>
      <path class="cls-3" d="M807.34,551.28l1.52-2.2c2.24,1.6,4.88,2.64,8.44,2.64,3.28,0,4.88-1.36,4.88-3,0-1.48-.76-2.52-6.04-3.6-5.08-1.04-7.6-2.76-7.6-5.68,0-3.12,2.76-5.52,8.08-5.52,2.96,0,5.92,1.16,7.84,2.48l-1.6,2.12c-1.8-1.24-4.04-2.04-6.52-2.04-3.28,0-4.48,1.32-4.48,2.8,0,1.68,1.68,2.4,5.68,3.24,6.44,1.4,8,3,8,6,0,3.16-3.08,5.8-8.64,5.8-3.8,0-7.2-1.4-9.56-3.04Z"/>
      <path class="cls-3" d="M674.62,588.72c0-8.48,4.84-13.6,11.64-13.6,3.48,0,5.76,1.64,7.24,3.2l-1.92,2.12c-1.24-1.32-2.8-2.36-5.32-2.36-4.92,0-8.12,4.04-8.12,10.56s2.92,10.72,8.04,10.72c1.84,0,3.56-.56,4.52-1.52v-6.84h-5.2v-2.76h8.32v11.04c-1.64,1.68-4.44,3.04-7.84,3.04-6.6,0-11.36-5.04-11.36-13.6Z"/>
      <path class="cls-3" d="M702.3,582.41h2.76l.32,4.6h.08c2.04-3.16,5.08-5.08,8.68-5.08,1.44,0,2.64.2,3.84.8l-.76,2.84c-1.36-.44-2.08-.64-3.6-.64-2.92,0-5.68,1.48-8,5.56v11.36h-3.32v-19.44Z"/>
      <path class="cls-3" d="M722.9,592.16c0-6.52,4.48-10.24,9.6-10.24s9.6,3.72,9.6,10.24-4.48,10.16-9.6,10.16-9.6-3.72-9.6-10.16ZM738.69,592.16c0-4.48-2.48-7.48-6.2-7.48s-6.2,3-6.2,7.48,2.48,7.4,6.2,7.4,6.2-2.96,6.2-7.4Z"/>
      <path class="cls-3" d="M747.58,594.48v-12.08h3.32v11.64c0,3.64,1.28,5.4,4.48,5.4,2.24,0,3.88-1.04,6.04-3.56v-13.48h3.32v19.44h-2.76l-.28-3.4h-.16c-1.96,2.28-4.24,3.88-7.24,3.88-4.6,0-6.72-2.72-6.72-7.84Z"/>
      <path class="cls-3" d="M772.22,582.41h2.72l.28,2.48h.12c1.8-1.72,4.36-2.96,6.72-2.96,5.24,0,8.04,3.88,8.04,9.92,0,6.6-4.16,10.48-8.84,10.48-1.8,0-4.04-.92-5.8-2.52h-.08l.16,3.68v6.56h-3.32v-27.64ZM786.69,591.84c0-4.28-1.6-7.12-5.48-7.12-1.72,0-3.72.88-5.68,2.88v9.68c1.8,1.64,3.84,2.24,5.16,2.24,3.44,0,6-2.88,6-7.68Z"/>
    </g>
    <g>
      <path class="cls-3" d="M968.06,527.61h7.92c5.8,0,9.72,1.96,9.72,7.72s-3.96,8.12-9.72,8.12h-4.56v10.4h-3.36v-26.24ZM975.58,540.72c4.56,0,6.76-1.68,6.76-5.4s-2.24-5-6.76-5h-4.16v10.4h4.16Z"/>
      <path class="cls-3" d="M990.7,544.08c0-6.32,4.72-10.16,9.92-10.16,5.6,0,8.88,3.64,8.88,9.12,0,.76-.08,1.48-.16,2h-16.44v-2.56h14.48l-.84.92c0-4.6-2.28-6.88-5.84-6.88s-6.72,2.72-6.72,7.56,3.28,7.6,7.6,7.6c2.32,0,4.16-.72,5.92-1.84l1.2,2.16c-1.92,1.28-4.4,2.32-7.52,2.32-5.84,0-10.48-3.76-10.48-10.24Z"/>
      <path class="cls-3" d="M1017.78,534.41h2.76l.32,4.6h.08c2.04-3.16,5.08-5.08,8.68-5.08,1.44,0,2.64.2,3.84.8l-.76,2.84c-1.36-.44-2.08-.64-3.6-.64-2.92,0-5.68,1.48-8,5.56v11.36h-3.32v-19.44Z"/>
      <path class="cls-3" d="M1038.3,534.41h2.64l.28,2.56h.08c1-1.8,2.2-3.04,4.44-3.04,1.92,0,3.12,1.12,3.68,3.36,1.12-2.08,2.32-3.36,4.56-3.36,2.72,0,4.32,2.12,4.32,6v13.92h-3.28v-13.68c0-2.24-.64-3.4-2.08-3.4-1.36,0-2.08,1-3.12,3v14.08h-3.04v-13.68c0-2.24-.56-3.4-2-3.4-1.36,0-2.24,1-3.2,3v14.08h-3.28v-19.44Z"/>
      <path class="cls-3" d="M1072.58,537.08h-9v-2.68h12.32v19.44h-3.32v-16.76ZM1071.26,527.77c0-1.52,1.12-2.56,2.64-2.56s2.64,1.04,2.64,2.56-1.12,2.56-2.64,2.56-2.64-1-2.64-2.56Z"/>
      <path class="cls-3" d="M1086.82,551.28l1.52-2.2c2.24,1.6,4.88,2.64,8.44,2.64,3.28,0,4.88-1.36,4.88-3,0-1.48-.76-2.52-6.04-3.6-5.08-1.04-7.6-2.76-7.6-5.68,0-3.12,2.76-5.52,8.08-5.52,2.96,0,5.92,1.16,7.84,2.48l-1.6,2.12c-1.8-1.24-4.04-2.04-6.52-2.04-3.28,0-4.48,1.32-4.48,2.8,0,1.68,1.68,2.4,5.68,3.24,6.44,1.4,8,3,8,6,0,3.16-3.08,5.8-8.64,5.8-3.8,0-7.2-1.4-9.56-3.04Z"/>
      <path class="cls-3" d="M1110.38,544.16c0-6.52,4.48-10.24,9.6-10.24s9.6,3.72,9.6,10.24-4.48,10.16-9.6,10.16-9.6-3.72-9.6-10.16ZM1126.18,544.16c0-4.48-2.48-7.48-6.2-7.48s-6.2,3-6.2,7.48,2.48,7.4,6.2,7.4,6.2-2.96,6.2-7.4Z"/>
      <path class="cls-3" d="M1134.82,551.28l1.52-2.2c2.24,1.6,4.88,2.64,8.44,2.64,3.28,0,4.88-1.36,4.88-3,0-1.48-.76-2.52-6.04-3.6-5.08-1.04-7.6-2.76-7.6-5.68,0-3.12,2.76-5.52,8.08-5.52,2.96,0,5.92,1.16,7.84,2.48l-1.6,2.12c-1.8-1.24-4.04-2.04-6.52-2.04-3.28,0-4.48,1.32-4.48,2.8,0,1.68,1.68,2.4,5.68,3.24,6.44,1.4,8,3,8,6,0,3.16-3.08,5.8-8.64,5.8-3.8,0-7.2-1.4-9.56-3.04Z"/>
      <path class="cls-3" d="M1001.9,588.6c0-8.48,4.16-13.48,10.08-13.48s10.08,5,10.08,13.48-4.16,13.72-10.08,13.72-10.08-5.12-10.08-13.72ZM1018.58,588.6c0-6.6-2.64-10.52-6.6-10.52s-6.6,3.92-6.6,10.52,2.64,10.76,6.6,10.76,6.6-4.04,6.6-10.76Z"/>
      <path class="cls-3" d="M1032.22,594.28v-9.2h-5.52v-2.48l5.64-.2.44-6.24h2.76v6.24h9.52v2.68h-9.52v9.24c0,3.48,1.16,5.28,4.92,5.28,1.8,0,3.24-.36,4.64-.88l.72,2.44c-1.76.64-3.64,1.16-6.08,1.16-5.68,0-7.52-3.24-7.52-8.04Z"/>
      <path class="cls-3" d="M1051.7,573.37h3.32v7.76l-.2,4.6h.12c1.96-2.16,4.24-3.8,7.24-3.8,4.6,0,6.72,2.72,6.72,7.84v12.08h-3.32v-11.64c0-3.68-1.28-5.4-4.44-5.4-2.32,0-3.88,1.16-6.12,3.48v13.56h-3.32v-28.47Z"/>
      <path class="cls-3" d="M1074.7,592.08c0-6.32,4.72-10.16,9.92-10.16,5.6,0,8.88,3.64,8.88,9.12,0,.76-.08,1.48-.16,2h-16.44v-2.56h14.48l-.84.92c0-4.6-2.28-6.88-5.84-6.88s-6.72,2.72-6.72,7.56,3.28,7.6,7.6,7.6c2.32,0,4.16-.72,5.92-1.84l1.2,2.16c-1.92,1.28-4.4,2.32-7.52,2.32-5.84,0-10.48-3.76-10.48-10.24Z"/>
      <path class="cls-3" d="M1101.78,582.41h2.76l.32,4.6h.08c2.04-3.16,5.08-5.08,8.68-5.08,1.44,0,2.64.2,3.84.8l-.76,2.84c-1.36-.44-2.08-.64-3.6-.64-2.92,0-5.68,1.48-8,5.56v11.36h-3.32v-19.44Z"/>
    </g>
  </g>
</svg>